<?xml version="1.0" encoding="UTF-8"?>
<svg xmlns="http://www.w3.org/2000/svg" xmlns:xlink="http://www.w3.org/1999/xlink" width="1000px" height="1000px" viewBox="0 0 1000 1000" version="1.1">
<g id="surface1">
<path style=" stroke:none;fill-rule:nonzero;fill:rgb(0%,0%,0%);fill-opacity:1;" d="M 3596.628906 9457.734375 C 3296.300781 9259.765625 3432.6875 8906.96875 3809.550781 8906.96875 C 4200.910156 8906.96875 4350.742188 9275.5625 4032.167969 9454.613281 C 3908.664062 9524.023438 3699.46875 9525.523438 3596.628906 9457.734375 Z M 4408.320312 9161.0625 L 4408.320312 9064.722656 L 4827.070312 9047.804688 C 7404.710938 8943.667969 9438.8125 8321.519531 9432.433594 7639.214844 C 9429.347656 7309.25 8839.863281 6952.800781 7950.527344 6743.140625 C 7845.171875 6718.300781 7763.691406 6693.261719 7769.460938 6687.496094 C 7801.957031 6654.996094 8519.980469 6860.304688 8853.289062 6997.402344 C 10856.554688 7821.371094 8701.316406 9066.894531 5008.320312 9219.425781 C 4822.695312 9227.09375 4611.757812 9238.777344 4539.570312 9245.386719 L 4408.320312 9257.40625 Z M 2449.1875 8380.046875 C -60.105469 8036.710938 1121.070312 5782.296875 5083.320312 3352.496094 C 5755.570312 2940.25 7021.859375 2256.894531 7585.703125 2002.085938 L 7675.589844 1961.464844 L 7764.058594 2095.800781 L 7852.523438 2230.136719 L 7249.171875 2531.003906 C 773.445312 5760.203125 -519.632812 9274.988281 5178.265625 8160.0625 C 5306.109375 8135.046875 5401.734375 8122.753906 5390.765625 8132.746094 C 5363.109375 8157.933594 4749.226562 8269.65625 4283.320312 8334.292969 C 3847.289062 8394.785156 2755.882812 8422.007812 2449.1875 8380.046875 Z M 6131.179688 8003.40625 C 5720.570312 7962.226562 5366.992188 7692.867188 5280.484375 7355.339844 C 5257.15625 7264.316406 5234.558594 7227.402344 5197.148438 7219.214844 C 5168.917969 7213.03125 5011.703125 7178.625 4847.785156 7142.757812 C 1988.339844 6517.027344 3807.585938 5023.125 7996.179688 4557.402344 C 8583.890625 4492.054688 8550.09375 4490.222656 8565.019531 4588.21875 C 8581.160156 4694.195312 8612.675781 4682.875 8190.839844 4722.65625 C 4238.53125 5095.382812 2290.1875 6501.394531 4870.820312 7118.53125 C 5289.90625 7218.753906 5258.320312 7216.367188 5258.320312 7147.816406 C 5258.320312 6548.171875 6172.464844 6163.695312 6831.777344 6486.042969 C 7791.335938 6955.183594 7255.296875 8116.144531 6131.179688 8003.40625 Z M 8917.488281 4810.46875 C 8613.367188 4619.394531 8755.902344 4256.96875 9135.167969 4256.96875 C 9494.035156 4256.96875 9646.566406 4594.515625 9376.800781 4791.6875 C 9275.40625 4865.792969 9022.035156 4876.152344 8917.488281 4810.46875 Z M 8451.679688 2229.765625 C 8108.679688 2148.957031 7883.308594 1856.90625 7954.941406 1586.054688 C 8135.671875 902.652344 9405.40625 1050.101562 9327.039062 1745.390625 C 9288.984375 2083 8852.914062 2324.296875 8451.679688 2229.765625 Z M 8451.679688 2229.765625 "/>
</g>
</svg>
