<?xml version="1.0" encoding="UTF-8" standalone="no"?>
<!-- Created with Inkscape (http://www.inkscape.org/) -->

<svg
   xmlns:dc="http://purl.org/dc/elements/1.1/"
   xmlns:cc="http://creativecommons.org/ns#"
   xmlns:rdf="http://www.w3.org/1999/02/22-rdf-syntax-ns#"
   xmlns:svg="http://www.w3.org/2000/svg"
   xmlns="http://www.w3.org/2000/svg"
   xmlns:sodipodi="http://sodipodi.sourceforge.net/DTD/sodipodi-0.dtd"
   xmlns:inkscape="http://www.inkscape.org/namespaces/inkscape"
   id="svg3336"
   version="1.1"
   inkscape:version="0.91 r13725"
   width="400"
   height="400"
   viewBox="0 0 400 400"
   sodipodi:docname="LogoGS.svg">
  <metadata
     id="metadata3342">
    <rdf:RDF>
      <cc:Work
         rdf:about="">
        <dc:format>image/svg+xml</dc:format>
        <dc:type
           rdf:resource="http://purl.org/dc/dcmitype/StillImage" />
        <dc:title></dc:title>
      </cc:Work>
    </rdf:RDF>
  </metadata>
  <defs
     id="defs3340" />
  <sodipodi:namedview
     pagecolor="#ffffff"
     bordercolor="#666666"
     borderopacity="1"
     objecttolerance="10"
     gridtolerance="10"
     guidetolerance="10"
     inkscape:pageopacity="0"
     inkscape:pageshadow="2"
     inkscape:window-width="1920"
     inkscape:window-height="1017"
     id="namedview3338"
     showgrid="false"
     inkscape:zoom="1"
     inkscape:cx="2240.5595"
     inkscape:cy="2140"
     inkscape:window-x="-8"
     inkscape:window-y="-8"
     inkscape:window-maximized="1"
     inkscape:current-layer="svg3336" />
  <path
     style="fill:#000000"
     d="m 143.86521,378.30944 c -12.01325,-7.91874 -6.55775,-22.0307 8.51677,-22.0307 15.65443,0 21.64777,14.74374 8.90471,21.90574 -4.94011,2.7765 -13.30788,2.83652 -17.42148,0.12496 z m 32.46756,-11.8669 0,-3.85367 16.75,-0.6767 c 103.10564,-4.16547 184.46975,-29.05138 184.21456,-56.34359 -0.1234,-13.19863 -23.70277,-27.45654 -59.27621,-35.84299 -4.21419,-0.9935 -7.47344,-1.9951 -7.24276,-2.22577 1.29992,-1.29992 30.02081,6.9124 43.35327,12.39624 80.13049,32.95883 -6.07902,82.77968 -153.79886,88.88101 -7.425,0.30668 -15.8625,0.77395 -18.75,1.03837 l -5.25,0.48077 0,-3.85367 z M 97.96754,335.20181 C -2.40426,321.4685 44.84286,231.29184 203.33277,134.09991 230.2228,117.60994 280.87436,90.2758 303.42819,80.08336 l 3.59542,-1.62483 3.53869,5.37345 3.5387,5.37344 -24.13411,12.03476 C 30.93774,230.40806 -20.78533,370.99956 207.13055,326.40251 c 5.11378,-1.00063 8.93878,-1.49232 8.5,-1.09264 -1.10612,1.00755 -25.66141,5.47643 -44.29778,8.06186 -17.44114,2.41962 -61.09742,3.50861 -73.36523,1.83008 z M 245.24723,320.1363 c -16.42447,-1.64721 -30.56755,-12.42154 -34.02779,-25.92268 -0.93313,-3.6409 -1.8371,-5.11748 -3.3335,-5.4451 -1.12924,-0.24724 -7.41779,-1.62345 -13.97454,-3.05826 -114.3778,-25.02916 -41.60796,-84.78528 125.93581,-103.41422 23.50849,-2.61387 22.15655,-2.68711 22.75354,1.2327 0.64562,4.23915 1.90622,3.78624 -14.96716,5.37749 -158.09236,14.90903 -236.02609,71.1495 -132.80082,95.83502 16.76345,4.00885 15.5,3.91337 15.5,1.17138 0,-23.98571 36.5658,-39.36475 62.9383,-26.47093 38.38241,18.76561 16.94088,65.20412 -28.02384,60.6946 z M 356.69948,192.41871 c -12.16475,-7.643 -6.46332,-22.13997 8.7073,-22.13997 14.35458,0 20.45588,13.50195 9.66522,21.38876 -4.05568,2.96427 -14.19061,3.37866 -18.37252,0.75121 z M 338.06724,89.19069 C 324.34714,85.95827 315.33236,74.27626 318.19758,63.442126 325.42695,36.106054 376.21627,42.004069 373.0815,69.815635 371.55936,83.31999 354.11663,92.97188 338.06724,89.19069 Z"
     id="path3519"
     inkscape:connector-curvature="0" />
</svg>
