<?xml version="1.0" encoding="UTF-8" ?>
<!DOCTYPE svg PUBLIC "-//W3C//DTD SVG 1.1//EN" "http://www.w3.org/Graphics/SVG/1.1/DTD/svg11.dtd">


<svg width="2182pt" height="2000pt" viewBox="0 0 541 496" version="1.1" xmlns="http://www.w3.org/2000/svg">


<path fill="none" d=" M 0.00 0.00 L 541.00 0.00 L 541.00 496.00 L 0.00 496.00 L 0.00 0.00 Z" />


<path fill="#0b0b0b" d=" M 351.29 15.28 C 359.78 15.20 368.67 18.05 374.52 24.45 C 378.46 28.70 380.61 34.81 379.40 40.56 C 378.04 48.41 371.41 54.37 364.24 57.13 C 352.16 61.84 336.53 59.26 328.44 48.56 C 323.80 42.84 323.33 34.36 327.10 28.07 C 332.05 19.77 341.89 15.54 351.29 15.28 Z" />


<path fill="#0b0b0b" d=" M 288.05 61.06 C 296.56 56.89 304.95 52.43 313.68 48.73 C 315.64 52.34 318.04 55.68 320.73 58.77 C 263.00 86.07 206.91 117.42 155.72 155.76 C 136.36 170.48 117.65 186.20 101.01 204.00 C 91.02 214.91 81.59 226.54 74.73 239.71 C 70.07 249.03 66.37 259.47 67.90 270.03 C 69.13 279.47 75.42 287.68 83.47 292.48 C 96.21 300.20 111.29 302.62 125.91 303.77 C 149.72 305.30 173.60 302.99 197.13 299.41 C 203.78 298.47 210.33 296.91 217.02 296.23 C 196.01 300.29 174.84 303.69 153.48 305.21 C 133.24 306.53 112.67 306.74 92.76 302.37 C 79.97 299.44 66.56 294.41 58.36 283.60 C 51.76 275.08 50.78 263.44 53.44 253.26 C 57.49 237.68 66.69 224.06 76.60 211.60 C 94.35 189.75 115.68 171.13 137.71 153.72 C 184.37 117.63 235.39 87.48 288.05 61.06 Z" />


<path fill="#0b0b0b" d=" M 367.35 140.44 C 375.48 138.15 386.71 142.58 387.27 152.00 C 386.73 160.64 376.76 165.14 369.07 163.75 C 362.83 163.00 356.29 157.84 356.98 151.03 C 357.51 145.56 362.29 141.71 367.35 140.44 Z" />


<path fill="#0b0b0b" d=" M 225.00 171.17 C 265.43 159.88 307.12 153.66 348.90 150.20 C 348.98 152.46 349.14 154.72 349.55 156.95 C 309.41 160.04 269.36 165.91 230.50 176.57 C 214.49 181.08 198.62 186.35 183.67 193.69 C 174.57 198.44 165.28 203.61 158.65 211.65 C 154.95 216.01 152.60 221.98 154.26 227.69 C 156.40 234.82 162.85 239.43 168.97 243.04 C 183.21 250.88 199.20 254.79 215.05 257.84 C 206.13 256.77 197.40 254.54 188.74 252.22 C 176.92 248.70 164.96 244.51 155.11 236.87 C 150.27 233.00 145.89 227.49 145.86 221.00 C 145.78 214.94 149.32 209.59 153.32 205.33 C 159.89 198.59 168.09 193.75 176.37 189.39 C 191.86 181.56 208.36 175.97 225.00 171.17 Z" />


<path fill="#0b0b0b" d=" M 338.86 184.85 C 361.52 179.20 384.61 175.11 407.90 173.23 C 427.85 171.99 448.44 171.92 467.57 178.45 C 478.49 182.21 489.13 189.46 493.48 200.58 C 498.22 211.84 495.64 224.54 491.50 235.56 C 483.90 255.00 471.16 271.89 457.61 287.57 C 432.47 316.21 403.21 340.93 372.84 363.84 C 335.09 392.02 295.16 417.23 253.90 439.93 C 251.55 436.45 248.86 433.23 245.94 430.23 C 282.24 410.22 317.63 388.48 351.27 364.24 C 384.56 340.09 416.68 313.87 444.04 283.03 C 456.76 268.22 468.92 252.43 476.20 234.16 C 480.16 223.88 482.56 212.10 478.57 201.46 C 475.14 192.20 466.95 185.60 458.06 181.86 C 442.29 175.31 424.85 174.39 407.99 175.00 C 384.66 175.67 361.67 180.22 338.86 184.85 Z" />


<path fill="#0b0b0b" d=" M 246.55 225.81 C 258.77 223.13 272.14 224.51 282.95 231.06 C 291.30 235.86 298.04 244.24 299.23 253.98 C 300.48 262.69 296.86 271.58 290.62 277.62 C 277.18 291.07 255.10 293.53 238.13 285.84 C 229.07 281.85 221.07 274.37 218.31 264.66 C 215.84 256.83 217.68 248.02 222.41 241.42 C 227.97 233.25 237.19 228.32 246.55 225.81 Z" />


<path fill="#0b0b0b" d=" M 325.01 239.12 C 331.80 240.24 338.40 242.26 344.99 244.21 C 357.59 248.31 370.28 253.03 380.96 261.07 C 386.30 265.26 391.49 270.91 391.80 278.06 C 392.18 285.08 387.53 291.09 382.54 295.52 C 372.71 303.87 360.72 309.13 348.75 313.64 C 324.53 322.48 299.15 327.66 273.73 331.65 C 243.80 336.18 213.56 338.42 183.31 339.30 C 183.42 337.04 183.43 334.77 183.36 332.51 C 217.20 331.86 251.04 329.00 284.42 323.32 C 302.37 320.18 320.20 316.14 337.54 310.50 C 350.06 306.19 362.61 301.26 373.31 293.30 C 377.84 289.76 382.19 285.43 383.95 279.81 C 385.56 274.59 383.70 268.86 380.21 264.84 C 375.32 259.13 368.80 255.07 362.07 251.86 C 350.34 246.02 337.70 242.27 325.01 239.12 Z" />


<path fill="#0b0b0b" d=" M 156.30 326.15 C 163.46 324.94 172.62 328.33 174.34 336.06 C 175.65 342.74 169.54 348.25 163.48 349.50 C 157.53 350.95 150.55 349.27 146.59 344.40 C 144.01 341.38 143.38 336.78 145.32 333.27 C 147.44 329.20 151.86 326.76 156.30 326.15 Z" />


<path fill="#0b0b0b" d=" M 209.42 433.56 C 218.04 431.74 227.48 433.23 234.84 438.20 C 240.29 441.96 244.61 448.15 244.29 455.00 C 244.45 460.32 241.72 465.33 237.98 468.96 C 226.58 479.42 207.28 479.53 195.69 469.32 C 190.04 464.37 187.21 456.04 189.93 448.84 C 192.94 440.58 201.12 435.35 209.42 433.56 Z" />


</svg>
